<?xml version="1.0" encoding="utf-8" standalone="no"?>
<!DOCTYPE svg PUBLIC "-//W3C//DTD SVG 1.1//EN"
  "http://www.w3.org/Graphics/SVG/1.1/DTD/svg11.dtd">
<svg role="img" xmlns:xlink="http://www.w3.org/1999/xlink" width="636.702188pt" height="304.841613pt" viewBox="0 0 636.702188 304.841613" xmlns="http://www.w3.org/2000/svg" version="1.1">
 <title>Authority and runtime readiness by snow surface-energy component</title>
 <desc>Grouped bars show current, partial, or missing authority and runtime coverage. Atmospheric and canopy longwave are missing; shortwave and cold content are current.</desc>
 <metadata>
  <rdf:RDF xmlns:dc="http://purl.org/dc/elements/1.1/" xmlns:cc="http://creativecommons.org/ns#" xmlns:rdf="http://www.w3.org/1999/02/22-rdf-syntax-ns#">
   <cc:Work>
    <dc:type rdf:resource="http://purl.org/dc/dcmitype/StillImage"/>
    <dc:title>Authority and runtime readiness by snow surface-energy component</dc:title>
    <dc:description>Grouped bars show current, partial, or missing authority and runtime coverage. Atmospheric and canopy longwave are missing; shortwave and cold content are current.</dc:description>
    <dc:format>image/svg+xml</dc:format>
    <dc:creator>
     <cc:Agent>
      <dc:title>Matplotlib v3.10.8, https://matplotlib.org/</dc:title>
     </cc:Agent>
    </dc:creator>
   </cc:Work>
  </rdf:RDF>
 </metadata>
 <defs>
  <style type="text/css">*{stroke-linejoin: round; stroke-linecap: butt}</style>
 </defs>
 <g id="figure_1">
  <g id="patch_1">
   <path d="M 0 304.841613 
L 636.702188 304.841613 
L 636.702188 0 
L 0 0 
z
" style="fill: #ffffff"/>
  </g>
  <g id="axes_1">
   <g id="patch_2">
    <path d="M 116.142188 251.136 
L 629.502187 251.136 
L 629.502187 7.2 
L 116.142188 7.2 
z
" style="fill: #ffffff"/>
   </g>
   <g id="matplotlib.axis_1">
    <g id="xtick_1">
     <g id="line2d_1">
      <defs>
       <path id="mb1741e15aa" d="M 0 0 
L 0 3.5 
" style="stroke: #000000; stroke-width: 0.8"/>
      </defs>
      <g>
       <use xlink:href="#mb1741e15aa" x="161.239521" y="251.136" style="stroke: #000000; stroke-width: 0.8"/>
      </g>
     </g>
     <g id="text_1">
      <!-- Shortwave -->
      <g transform="translate(112.132288 287.511758) rotate(-25) scale(0.1 -0.1)">
       <defs>
        <path id="DejaVuSans-53" d="M 3425 4513 
L 3425 3897 
Q 3066 4069 2747 4153 
Q 2428 4238 2131 4238 
Q 1616 4238 1336 4038 
Q 1056 3838 1056 3469 
Q 1056 3159 1242 3001 
Q 1428 2844 1947 2747 
L 2328 2669 
Q 3034 2534 3370 2195 
Q 3706 1856 3706 1288 
Q 3706 609 3251 259 
Q 2797 -91 1919 -91 
Q 1588 -91 1214 -16 
Q 841 59 441 206 
L 441 856 
Q 825 641 1194 531 
Q 1563 422 1919 422 
Q 2459 422 2753 634 
Q 3047 847 3047 1241 
Q 3047 1584 2836 1778 
Q 2625 1972 2144 2069 
L 1759 2144 
Q 1053 2284 737 2584 
Q 422 2884 422 3419 
Q 422 4038 858 4394 
Q 1294 4750 2059 4750 
Q 2388 4750 2728 4690 
Q 3069 4631 3425 4513 
z
" transform="scale(0.015625)"/>
        <path id="DejaVuSans-68" d="M 3513 2113 
L 3513 0 
L 2938 0 
L 2938 2094 
Q 2938 2591 2744 2837 
Q 2550 3084 2163 3084 
Q 1697 3084 1428 2787 
Q 1159 2491 1159 1978 
L 1159 0 
L 581 0 
L 581 4863 
L 1159 4863 
L 1159 2956 
Q 1366 3272 1645 3428 
Q 1925 3584 2291 3584 
Q 2894 3584 3203 3211 
Q 3513 2838 3513 2113 
z
" transform="scale(0.015625)"/>
        <path id="DejaVuSans-6f" d="M 1959 3097 
Q 1497 3097 1228 2736 
Q 959 2375 959 1747 
Q 959 1119 1226 758 
Q 1494 397 1959 397 
Q 2419 397 2687 759 
Q 2956 1122 2956 1747 
Q 2956 2369 2687 2733 
Q 2419 3097 1959 3097 
z
M 1959 3584 
Q 2709 3584 3137 3096 
Q 3566 2609 3566 1747 
Q 3566 888 3137 398 
Q 2709 -91 1959 -91 
Q 1206 -91 779 398 
Q 353 888 353 1747 
Q 353 2609 779 3096 
Q 1206 3584 1959 3584 
z
" transform="scale(0.015625)"/>
        <path id="DejaVuSans-72" d="M 2631 2963 
Q 2534 3019 2420 3045 
Q 2306 3072 2169 3072 
Q 1681 3072 1420 2755 
Q 1159 2438 1159 1844 
L 1159 0 
L 581 0 
L 581 3500 
L 1159 3500 
L 1159 2956 
Q 1341 3275 1631 3429 
Q 1922 3584 2338 3584 
Q 2397 3584 2469 3576 
Q 2541 3569 2628 3553 
L 2631 2963 
z
" transform="scale(0.015625)"/>
        <path id="DejaVuSans-74" d="M 1172 4494 
L 1172 3500 
L 2356 3500 
L 2356 3053 
L 1172 3053 
L 1172 1153 
Q 1172 725 1289 603 
Q 1406 481 1766 481 
L 2356 481 
L 2356 0 
L 1766 0 
Q 1100 0 847 248 
Q 594 497 594 1153 
L 594 3053 
L 172 3053 
L 172 3500 
L 594 3500 
L 594 4494 
L 1172 4494 
z
" transform="scale(0.015625)"/>
        <path id="DejaVuSans-77" d="M 269 3500 
L 844 3500 
L 1563 769 
L 2278 3500 
L 2956 3500 
L 3675 769 
L 4391 3500 
L 4966 3500 
L 4050 0 
L 3372 0 
L 2619 2869 
L 1863 0 
L 1184 0 
L 269 3500 
z
" transform="scale(0.015625)"/>
        <path id="DejaVuSans-61" d="M 2194 1759 
Q 1497 1759 1228 1600 
Q 959 1441 959 1056 
Q 959 750 1161 570 
Q 1363 391 1709 391 
Q 2188 391 2477 730 
Q 2766 1069 2766 1631 
L 2766 1759 
L 2194 1759 
z
M 3341 1997 
L 3341 0 
L 2766 0 
L 2766 531 
Q 2569 213 2275 61 
Q 1981 -91 1556 -91 
Q 1019 -91 701 211 
Q 384 513 384 1019 
Q 384 1609 779 1909 
Q 1175 2209 1959 2209 
L 2766 2209 
L 2766 2266 
Q 2766 2663 2505 2880 
Q 2244 3097 1772 3097 
Q 1472 3097 1187 3025 
Q 903 2953 641 2809 
L 641 3341 
Q 956 3463 1253 3523 
Q 1550 3584 1831 3584 
Q 2591 3584 2966 3190 
Q 3341 2797 3341 1997 
z
" transform="scale(0.015625)"/>
        <path id="DejaVuSans-76" d="M 191 3500 
L 800 3500 
L 1894 563 
L 2988 3500 
L 3597 3500 
L 2284 0 
L 1503 0 
L 191 3500 
z
" transform="scale(0.015625)"/>
        <path id="DejaVuSans-65" d="M 3597 1894 
L 3597 1613 
L 953 1613 
Q 991 1019 1311 708 
Q 1631 397 2203 397 
Q 2534 397 2845 478 
Q 3156 559 3463 722 
L 3463 178 
Q 3153 47 2828 -22 
Q 2503 -91 2169 -91 
Q 1331 -91 842 396 
Q 353 884 353 1716 
Q 353 2575 817 3079 
Q 1281 3584 2069 3584 
Q 2775 3584 3186 3129 
Q 3597 2675 3597 1894 
z
M 3022 2063 
Q 3016 2534 2758 2815 
Q 2500 3097 2075 3097 
Q 1594 3097 1305 2825 
Q 1016 2553 972 2059 
L 3022 2063 
z
" transform="scale(0.015625)"/>
       </defs>
       <use xlink:href="#DejaVuSans-53"/>
       <use xlink:href="#DejaVuSans-68" transform="translate(63.476562 0)"/>
       <use xlink:href="#DejaVuSans-6f" transform="translate(126.855469 0)"/>
       <use xlink:href="#DejaVuSans-72" transform="translate(188.037109 0)"/>
       <use xlink:href="#DejaVuSans-74" transform="translate(229.150391 0)"/>
       <use xlink:href="#DejaVuSans-77" transform="translate(268.359375 0)"/>
       <use xlink:href="#DejaVuSans-61" transform="translate(350.146484 0)"/>
       <use xlink:href="#DejaVuSans-76" transform="translate(411.425781 0)"/>
       <use xlink:href="#DejaVuSans-65" transform="translate(470.605469 0)"/>
      </g>
     </g>
    </g>
    <g id="xtick_2">
     <g id="line2d_2">
      <g>
       <use xlink:href="#mb1741e15aa" x="221.691712" y="251.136" style="stroke: #000000; stroke-width: 0.8"/>
      </g>
     </g>
     <g id="text_2">
      <!-- Atmos. LW -->
      <g transform="translate(173.179243 287.234414) rotate(-25) scale(0.1 -0.1)">
       <defs>
        <path id="DejaVuSans-41" d="M 2188 4044 
L 1331 1722 
L 3047 1722 
L 2188 4044 
z
M 1831 4666 
L 2547 4666 
L 4325 0 
L 3669 0 
L 3244 1197 
L 1141 1197 
L 716 0 
L 50 0 
L 1831 4666 
z
" transform="scale(0.015625)"/>
        <path id="DejaVuSans-6d" d="M 3328 2828 
Q 3544 3216 3844 3400 
Q 4144 3584 4550 3584 
Q 5097 3584 5394 3201 
Q 5691 2819 5691 2113 
L 5691 0 
L 5113 0 
L 5113 2094 
Q 5113 2597 4934 2840 
Q 4756 3084 4391 3084 
Q 3944 3084 3684 2787 
Q 3425 2491 3425 1978 
L 3425 0 
L 2847 0 
L 2847 2094 
Q 2847 2600 2669 2842 
Q 2491 3084 2119 3084 
Q 1678 3084 1418 2786 
Q 1159 2488 1159 1978 
L 1159 0 
L 581 0 
L 581 3500 
L 1159 3500 
L 1159 2956 
Q 1356 3278 1631 3431 
Q 1906 3584 2284 3584 
Q 2666 3584 2933 3390 
Q 3200 3197 3328 2828 
z
" transform="scale(0.015625)"/>
        <path id="DejaVuSans-73" d="M 2834 3397 
L 2834 2853 
Q 2591 2978 2328 3040 
Q 2066 3103 1784 3103 
Q 1356 3103 1142 2972 
Q 928 2841 928 2578 
Q 928 2378 1081 2264 
Q 1234 2150 1697 2047 
L 1894 2003 
Q 2506 1872 2764 1633 
Q 3022 1394 3022 966 
Q 3022 478 2636 193 
Q 2250 -91 1575 -91 
Q 1294 -91 989 -36 
Q 684 19 347 128 
L 347 722 
Q 666 556 975 473 
Q 1284 391 1588 391 
Q 1994 391 2212 530 
Q 2431 669 2431 922 
Q 2431 1156 2273 1281 
Q 2116 1406 1581 1522 
L 1381 1569 
Q 847 1681 609 1914 
Q 372 2147 372 2553 
Q 372 3047 722 3315 
Q 1072 3584 1716 3584 
Q 2034 3584 2315 3537 
Q 2597 3491 2834 3397 
z
" transform="scale(0.015625)"/>
        <path id="DejaVuSans-2e" d="M 684 794 
L 1344 794 
L 1344 0 
L 684 0 
L 684 794 
z
" transform="scale(0.015625)"/>
        <path id="DejaVuSans-20" transform="scale(0.015625)"/>
        <path id="DejaVuSans-4c" d="M 628 4666 
L 1259 4666 
L 1259 531 
L 3531 531 
L 3531 0 
L 628 0 
L 628 4666 
z
" transform="scale(0.015625)"/>
        <path id="DejaVuSans-57" d="M 213 4666 
L 850 4666 
L 1831 722 
L 2809 4666 
L 3519 4666 
L 4500 722 
L 5478 4666 
L 6119 4666 
L 4947 0 
L 4153 0 
L 3169 4050 
L 2175 0 
L 1381 0 
L 213 4666 
z
" transform="scale(0.015625)"/>
       </defs>
       <use xlink:href="#DejaVuSans-41"/>
       <use xlink:href="#DejaVuSans-74" transform="translate(66.658203 0)"/>
       <use xlink:href="#DejaVuSans-6d" transform="translate(105.867188 0)"/>
       <use xlink:href="#DejaVuSans-6f" transform="translate(203.279297 0)"/>
       <use xlink:href="#DejaVuSans-73" transform="translate(264.460938 0)"/>
       <use xlink:href="#DejaVuSans-2e" transform="translate(316.560547 0)"/>
       <use xlink:href="#DejaVuSans-20" transform="translate(348.347656 0)"/>
       <use xlink:href="#DejaVuSans-4c" transform="translate(380.134766 0)"/>
       <use xlink:href="#DejaVuSans-57" transform="translate(426.722656 0)"/>
      </g>
     </g>
    </g>
    <g id="xtick_3">
     <g id="line2d_3">
      <g>
       <use xlink:href="#mb1741e15aa" x="282.143902" y="251.136" style="stroke: #000000; stroke-width: 0.8"/>
      </g>
     </g>
     <g id="text_3">
      <!-- Canopy LW -->
      <g transform="translate(230.911094 288.50293) rotate(-25) scale(0.1 -0.1)">
       <defs>
        <path id="DejaVuSans-43" d="M 4122 4306 
L 4122 3641 
Q 3803 3938 3442 4084 
Q 3081 4231 2675 4231 
Q 1875 4231 1450 3742 
Q 1025 3253 1025 2328 
Q 1025 1406 1450 917 
Q 1875 428 2675 428 
Q 3081 428 3442 575 
Q 3803 722 4122 1019 
L 4122 359 
Q 3791 134 3420 21 
Q 3050 -91 2638 -91 
Q 1578 -91 968 557 
Q 359 1206 359 2328 
Q 359 3453 968 4101 
Q 1578 4750 2638 4750 
Q 3056 4750 3426 4639 
Q 3797 4528 4122 4306 
z
" transform="scale(0.015625)"/>
        <path id="DejaVuSans-6e" d="M 3513 2113 
L 3513 0 
L 2938 0 
L 2938 2094 
Q 2938 2591 2744 2837 
Q 2550 3084 2163 3084 
Q 1697 3084 1428 2787 
Q 1159 2491 1159 1978 
L 1159 0 
L 581 0 
L 581 3500 
L 1159 3500 
L 1159 2956 
Q 1366 3272 1645 3428 
Q 1925 3584 2291 3584 
Q 2894 3584 3203 3211 
Q 3513 2838 3513 2113 
z
" transform="scale(0.015625)"/>
        <path id="DejaVuSans-70" d="M 1159 525 
L 1159 -1331 
L 581 -1331 
L 581 3500 
L 1159 3500 
L 1159 2969 
Q 1341 3281 1617 3432 
Q 1894 3584 2278 3584 
Q 2916 3584 3314 3078 
Q 3713 2572 3713 1747 
Q 3713 922 3314 415 
Q 2916 -91 2278 -91 
Q 1894 -91 1617 61 
Q 1341 213 1159 525 
z
M 3116 1747 
Q 3116 2381 2855 2742 
Q 2594 3103 2138 3103 
Q 1681 3103 1420 2742 
Q 1159 2381 1159 1747 
Q 1159 1113 1420 752 
Q 1681 391 2138 391 
Q 2594 391 2855 752 
Q 3116 1113 3116 1747 
z
" transform="scale(0.015625)"/>
        <path id="DejaVuSans-79" d="M 2059 -325 
Q 1816 -950 1584 -1140 
Q 1353 -1331 966 -1331 
L 506 -1331 
L 506 -850 
L 844 -850 
Q 1081 -850 1212 -737 
Q 1344 -625 1503 -206 
L 1606 56 
L 191 3500 
L 800 3500 
L 1894 763 
L 2988 3500 
L 3597 3500 
L 2059 -325 
z
" transform="scale(0.015625)"/>
       </defs>
       <use xlink:href="#DejaVuSans-43"/>
       <use xlink:href="#DejaVuSans-61" transform="translate(69.824219 0)"/>
       <use xlink:href="#DejaVuSans-6e" transform="translate(131.103516 0)"/>
       <use xlink:href="#DejaVuSans-6f" transform="translate(194.482422 0)"/>
       <use xlink:href="#DejaVuSans-70" transform="translate(255.664062 0)"/>
       <use xlink:href="#DejaVuSans-79" transform="translate(319.140625 0)"/>
       <use xlink:href="#DejaVuSans-20" transform="translate(378.320312 0)"/>
       <use xlink:href="#DejaVuSans-4c" transform="translate(410.107422 0)"/>
       <use xlink:href="#DejaVuSans-57" transform="translate(456.695312 0)"/>
      </g>
     </g>
    </g>
    <g id="xtick_4">
     <g id="line2d_4">
      <g>
       <use xlink:href="#mb1741e15aa" x="342.596092" y="251.136" style="stroke: #000000; stroke-width: 0.8"/>
      </g>
     </g>
     <g id="text_4">
      <!-- Sensible -->
      <g transform="translate(303.555956 282.817393) rotate(-25) scale(0.1 -0.1)">
       <defs>
        <path id="DejaVuSans-69" d="M 603 3500 
L 1178 3500 
L 1178 0 
L 603 0 
L 603 3500 
z
M 603 4863 
L 1178 4863 
L 1178 4134 
L 603 4134 
L 603 4863 
z
" transform="scale(0.015625)"/>
        <path id="DejaVuSans-62" d="M 3116 1747 
Q 3116 2381 2855 2742 
Q 2594 3103 2138 3103 
Q 1681 3103 1420 2742 
Q 1159 2381 1159 1747 
Q 1159 1113 1420 752 
Q 1681 391 2138 391 
Q 2594 391 2855 752 
Q 3116 1113 3116 1747 
z
M 1159 2969 
Q 1341 3281 1617 3432 
Q 1894 3584 2278 3584 
Q 2916 3584 3314 3078 
Q 3713 2572 3713 1747 
Q 3713 922 3314 415 
Q 2916 -91 2278 -91 
Q 1894 -91 1617 61 
Q 1341 213 1159 525 
L 1159 0 
L 581 0 
L 581 4863 
L 1159 4863 
L 1159 2969 
z
" transform="scale(0.015625)"/>
        <path id="DejaVuSans-6c" d="M 603 4863 
L 1178 4863 
L 1178 0 
L 603 0 
L 603 4863 
z
" transform="scale(0.015625)"/>
       </defs>
       <use xlink:href="#DejaVuSans-53"/>
       <use xlink:href="#DejaVuSans-65" transform="translate(63.476562 0)"/>
       <use xlink:href="#DejaVuSans-6e" transform="translate(125 0)"/>
       <use xlink:href="#DejaVuSans-73" transform="translate(188.378906 0)"/>
       <use xlink:href="#DejaVuSans-69" transform="translate(240.478516 0)"/>
       <use xlink:href="#DejaVuSans-62" transform="translate(268.261719 0)"/>
       <use xlink:href="#DejaVuSans-6c" transform="translate(331.738281 0)"/>
       <use xlink:href="#DejaVuSans-65" transform="translate(359.521484 0)"/>
      </g>
     </g>
    </g>
    <g id="xtick_5">
     <g id="line2d_5">
      <g>
       <use xlink:href="#mb1741e15aa" x="403.048283" y="251.136" style="stroke: #000000; stroke-width: 0.8"/>
      </g>
     </g>
     <g id="text_5">
      <!-- Latent/vapor -->
      <g transform="translate(344.143013 292.080657) rotate(-25) scale(0.1 -0.1)">
       <defs>
        <path id="DejaVuSans-2f" d="M 1625 4666 
L 2156 4666 
L 531 -594 
L 0 -594 
L 1625 4666 
z
" transform="scale(0.015625)"/>
       </defs>
       <use xlink:href="#DejaVuSans-4c"/>
       <use xlink:href="#DejaVuSans-61" transform="translate(55.712891 0)"/>
       <use xlink:href="#DejaVuSans-74" transform="translate(116.992188 0)"/>
       <use xlink:href="#DejaVuSans-65" transform="translate(156.201172 0)"/>
       <use xlink:href="#DejaVuSans-6e" transform="translate(217.724609 0)"/>
       <use xlink:href="#DejaVuSans-74" transform="translate(281.103516 0)"/>
       <use xlink:href="#DejaVuSans-2f" transform="translate(320.3125 0)"/>
       <use xlink:href="#DejaVuSans-76" transform="translate(354.003906 0)"/>
       <use xlink:href="#DejaVuSans-61" transform="translate(413.183594 0)"/>
       <use xlink:href="#DejaVuSans-70" transform="translate(474.462891 0)"/>
       <use xlink:href="#DejaVuSans-6f" transform="translate(537.939453 0)"/>
       <use xlink:href="#DejaVuSans-72" transform="translate(599.121094 0)"/>
      </g>
     </g>
    </g>
    <g id="xtick_6">
     <g id="line2d_6">
      <g>
       <use xlink:href="#mb1741e15aa" x="463.500473" y="251.136" style="stroke: #000000; stroke-width: 0.8"/>
      </g>
     </g>
     <g id="text_6">
      <!-- Conduction -->
      <g transform="translate(411.163102 289.017996) rotate(-25) scale(0.1 -0.1)">
       <defs>
        <path id="DejaVuSans-64" d="M 2906 2969 
L 2906 4863 
L 3481 4863 
L 3481 0 
L 2906 0 
L 2906 525 
Q 2725 213 2448 61 
Q 2172 -91 1784 -91 
Q 1150 -91 751 415 
Q 353 922 353 1747 
Q 353 2572 751 3078 
Q 1150 3584 1784 3584 
Q 2172 3584 2448 3432 
Q 2725 3281 2906 2969 
z
M 947 1747 
Q 947 1113 1208 752 
Q 1469 391 1925 391 
Q 2381 391 2643 752 
Q 2906 1113 2906 1747 
Q 2906 2381 2643 2742 
Q 2381 3103 1925 3103 
Q 1469 3103 1208 2742 
Q 947 2381 947 1747 
z
" transform="scale(0.015625)"/>
        <path id="DejaVuSans-75" d="M 544 1381 
L 544 3500 
L 1119 3500 
L 1119 1403 
Q 1119 906 1312 657 
Q 1506 409 1894 409 
Q 2359 409 2629 706 
Q 2900 1003 2900 1516 
L 2900 3500 
L 3475 3500 
L 3475 0 
L 2900 0 
L 2900 538 
Q 2691 219 2414 64 
Q 2138 -91 1772 -91 
Q 1169 -91 856 284 
Q 544 659 544 1381 
z
M 1991 3584 
L 1991 3584 
z
" transform="scale(0.015625)"/>
        <path id="DejaVuSans-63" d="M 3122 3366 
L 3122 2828 
Q 2878 2963 2633 3030 
Q 2388 3097 2138 3097 
Q 1578 3097 1268 2742 
Q 959 2388 959 1747 
Q 959 1106 1268 751 
Q 1578 397 2138 397 
Q 2388 397 2633 464 
Q 2878 531 3122 666 
L 3122 134 
Q 2881 22 2623 -34 
Q 2366 -91 2075 -91 
Q 1284 -91 818 406 
Q 353 903 353 1747 
Q 353 2603 823 3093 
Q 1294 3584 2113 3584 
Q 2378 3584 2631 3529 
Q 2884 3475 3122 3366 
z
" transform="scale(0.015625)"/>
       </defs>
       <use xlink:href="#DejaVuSans-43"/>
       <use xlink:href="#DejaVuSans-6f" transform="translate(69.824219 0)"/>
       <use xlink:href="#DejaVuSans-6e" transform="translate(131.005859 0)"/>
       <use xlink:href="#DejaVuSans-64" transform="translate(194.384766 0)"/>
       <use xlink:href="#DejaVuSans-75" transform="translate(257.861328 0)"/>
       <use xlink:href="#DejaVuSans-63" transform="translate(321.240234 0)"/>
       <use xlink:href="#DejaVuSans-74" transform="translate(376.220703 0)"/>
       <use xlink:href="#DejaVuSans-69" transform="translate(415.429688 0)"/>
       <use xlink:href="#DejaVuSans-6f" transform="translate(443.212891 0)"/>
       <use xlink:href="#DejaVuSans-6e" transform="translate(504.394531 0)"/>
      </g>
     </g>
    </g>
    <g id="xtick_7">
     <g id="line2d_7">
      <g>
       <use xlink:href="#mb1741e15aa" x="523.952663" y="251.136" style="stroke: #000000; stroke-width: 0.8"/>
      </g>
     </g>
     <g id="text_7">
      <!-- Advected heat -->
      <g transform="translate(457.163932 295.756776) rotate(-25) scale(0.1 -0.1)">
       <use xlink:href="#DejaVuSans-41"/>
       <use xlink:href="#DejaVuSans-64" transform="translate(66.658203 0)"/>
       <use xlink:href="#DejaVuSans-76" transform="translate(130.134766 0)"/>
       <use xlink:href="#DejaVuSans-65" transform="translate(189.314453 0)"/>
       <use xlink:href="#DejaVuSans-63" transform="translate(250.837891 0)"/>
       <use xlink:href="#DejaVuSans-74" transform="translate(305.818359 0)"/>
       <use xlink:href="#DejaVuSans-65" transform="translate(345.027344 0)"/>
       <use xlink:href="#DejaVuSans-64" transform="translate(406.550781 0)"/>
       <use xlink:href="#DejaVuSans-20" transform="translate(470.027344 0)"/>
       <use xlink:href="#DejaVuSans-68" transform="translate(501.814453 0)"/>
       <use xlink:href="#DejaVuSans-65" transform="translate(565.193359 0)"/>
       <use xlink:href="#DejaVuSans-61" transform="translate(626.716797 0)"/>
       <use xlink:href="#DejaVuSans-74" transform="translate(687.996094 0)"/>
      </g>
     </g>
    </g>
    <g id="xtick_8">
     <g id="line2d_8">
      <g>
       <use xlink:href="#mb1741e15aa" x="584.404854" y="251.136" style="stroke: #000000; stroke-width: 0.8"/>
      </g>
     </g>
     <g id="text_8">
      <!-- Cold content -->
      <g transform="translate(525.801214 291.940005) rotate(-25) scale(0.1 -0.1)">
       <use xlink:href="#DejaVuSans-43"/>
       <use xlink:href="#DejaVuSans-6f" transform="translate(69.824219 0)"/>
       <use xlink:href="#DejaVuSans-6c" transform="translate(131.005859 0)"/>
       <use xlink:href="#DejaVuSans-64" transform="translate(158.789062 0)"/>
       <use xlink:href="#DejaVuSans-20" transform="translate(222.265625 0)"/>
       <use xlink:href="#DejaVuSans-63" transform="translate(254.052734 0)"/>
       <use xlink:href="#DejaVuSans-6f" transform="translate(309.033203 0)"/>
       <use xlink:href="#DejaVuSans-6e" transform="translate(370.214844 0)"/>
       <use xlink:href="#DejaVuSans-74" transform="translate(433.59375 0)"/>
       <use xlink:href="#DejaVuSans-65" transform="translate(472.802734 0)"/>
       <use xlink:href="#DejaVuSans-6e" transform="translate(534.326172 0)"/>
       <use xlink:href="#DejaVuSans-74" transform="translate(597.705078 0)"/>
      </g>
     </g>
    </g>
   </g>
   <g id="matplotlib.axis_2">
    <g id="ytick_1">
     <g id="line2d_9">
      <path d="M 116.142188 251.136 
L 629.502187 251.136 
" clip-path="url(#p5d98c5ff0e)" style="fill: none; stroke: #b0b0b0; stroke-opacity: 0.25; stroke-width: 0.8; stroke-linecap: square"/>
     </g>
     <g id="line2d_10">
      <defs>
       <path id="m49b1906af1" d="M 0 0 
L -3.5 0 
" style="stroke: #000000; stroke-width: 0.8"/>
      </defs>
      <g>
       <use xlink:href="#m49b1906af1" x="116.142188" y="251.136" style="stroke: #000000; stroke-width: 0.8"/>
      </g>
     </g>
     <g id="text_9">
      <!-- Missing -->
      <g transform="translate(71.853125 254.935219) scale(0.1 -0.1)">
       <defs>
        <path id="DejaVuSans-4d" d="M 628 4666 
L 1569 4666 
L 2759 1491 
L 3956 4666 
L 4897 4666 
L 4897 0 
L 4281 0 
L 4281 4097 
L 3078 897 
L 2444 897 
L 1241 4097 
L 1241 0 
L 628 0 
L 628 4666 
z
" transform="scale(0.015625)"/>
        <path id="DejaVuSans-67" d="M 2906 1791 
Q 2906 2416 2648 2759 
Q 2391 3103 1925 3103 
Q 1463 3103 1205 2759 
Q 947 2416 947 1791 
Q 947 1169 1205 825 
Q 1463 481 1925 481 
Q 2391 481 2648 825 
Q 2906 1169 2906 1791 
z
M 3481 434 
Q 3481 -459 3084 -895 
Q 2688 -1331 1869 -1331 
Q 1566 -1331 1297 -1286 
Q 1028 -1241 775 -1147 
L 775 -588 
Q 1028 -725 1275 -790 
Q 1522 -856 1778 -856 
Q 2344 -856 2625 -561 
Q 2906 -266 2906 331 
L 2906 616 
Q 2728 306 2450 153 
Q 2172 0 1784 0 
Q 1141 0 747 490 
Q 353 981 353 1791 
Q 353 2603 747 3093 
Q 1141 3584 1784 3584 
Q 2172 3584 2450 3431 
Q 2728 3278 2906 2969 
L 2906 3500 
L 3481 3500 
L 3481 434 
z
" transform="scale(0.015625)"/>
       </defs>
       <use xlink:href="#DejaVuSans-4d"/>
       <use xlink:href="#DejaVuSans-69" transform="translate(86.279297 0)"/>
       <use xlink:href="#DejaVuSans-73" transform="translate(114.0625 0)"/>
       <use xlink:href="#DejaVuSans-73" transform="translate(166.162109 0)"/>
       <use xlink:href="#DejaVuSans-69" transform="translate(218.261719 0)"/>
       <use xlink:href="#DejaVuSans-6e" transform="translate(246.044922 0)"/>
       <use xlink:href="#DejaVuSans-67" transform="translate(309.423828 0)"/>
      </g>
     </g>
    </g>
    <g id="ytick_2">
     <g id="line2d_11">
      <path d="M 116.142188 147.333447 
L 629.502187 147.333447 
" clip-path="url(#p5d98c5ff0e)" style="fill: none; stroke: #b0b0b0; stroke-opacity: 0.25; stroke-width: 0.8; stroke-linecap: square"/>
     </g>
     <g id="line2d_12">
      <g>
       <use xlink:href="#m49b1906af1" x="116.142188" y="147.333447" style="stroke: #000000; stroke-width: 0.8"/>
      </g>
     </g>
     <g id="text_10">
      <!-- Partial/admissible -->
      <g transform="translate(20.878125 151.132666) scale(0.1 -0.1)">
       <defs>
        <path id="DejaVuSans-50" d="M 1259 4147 
L 1259 2394 
L 2053 2394 
Q 2494 2394 2734 2622 
Q 2975 2850 2975 3272 
Q 2975 3691 2734 3919 
Q 2494 4147 2053 4147 
L 1259 4147 
z
M 628 4666 
L 2053 4666 
Q 2838 4666 3239 4311 
Q 3641 3956 3641 3272 
Q 3641 2581 3239 2228 
Q 2838 1875 2053 1875 
L 1259 1875 
L 1259 0 
L 628 0 
L 628 4666 
z
" transform="scale(0.015625)"/>
       </defs>
       <use xlink:href="#DejaVuSans-50"/>
       <use xlink:href="#DejaVuSans-61" transform="translate(55.802734 0)"/>
       <use xlink:href="#DejaVuSans-72" transform="translate(117.082031 0)"/>
       <use xlink:href="#DejaVuSans-74" transform="translate(158.195312 0)"/>
       <use xlink:href="#DejaVuSans-69" transform="translate(197.404297 0)"/>
       <use xlink:href="#DejaVuSans-61" transform="translate(225.1875 0)"/>
       <use xlink:href="#DejaVuSans-6c" transform="translate(286.466797 0)"/>
       <use xlink:href="#DejaVuSans-2f" transform="translate(314.25 0)"/>
       <use xlink:href="#DejaVuSans-61" transform="translate(347.941406 0)"/>
       <use xlink:href="#DejaVuSans-64" transform="translate(409.220703 0)"/>
       <use xlink:href="#DejaVuSans-6d" transform="translate(472.697266 0)"/>
       <use xlink:href="#DejaVuSans-69" transform="translate(570.109375 0)"/>
       <use xlink:href="#DejaVuSans-73" transform="translate(597.892578 0)"/>
       <use xlink:href="#DejaVuSans-73" transform="translate(649.992188 0)"/>
       <use xlink:href="#DejaVuSans-69" transform="translate(702.091797 0)"/>
       <use xlink:href="#DejaVuSans-62" transform="translate(729.875 0)"/>
       <use xlink:href="#DejaVuSans-6c" transform="translate(793.351562 0)"/>
       <use xlink:href="#DejaVuSans-65" transform="translate(821.134766 0)"/>
      </g>
     </g>
    </g>
    <g id="ytick_3">
     <g id="line2d_13">
      <path d="M 116.142188 43.530894 
L 629.502187 43.530894 
" clip-path="url(#p5d98c5ff0e)" style="fill: none; stroke: #b0b0b0; stroke-opacity: 0.25; stroke-width: 0.8; stroke-linecap: square"/>
     </g>
     <g id="line2d_14">
      <g>
       <use xlink:href="#m49b1906af1" x="116.142188" y="43.530894" style="stroke: #000000; stroke-width: 0.8"/>
      </g>
     </g>
     <g id="text_11">
      <!-- Current -->
      <g transform="translate(71.589063 47.330112) scale(0.1 -0.1)">
       <use xlink:href="#DejaVuSans-43"/>
       <use xlink:href="#DejaVuSans-75" transform="translate(69.824219 0)"/>
       <use xlink:href="#DejaVuSans-72" transform="translate(133.203125 0)"/>
       <use xlink:href="#DejaVuSans-72" transform="translate(172.566406 0)"/>
       <use xlink:href="#DejaVuSans-65" transform="translate(211.429688 0)"/>
       <use xlink:href="#DejaVuSans-6e" transform="translate(272.953125 0)"/>
       <use xlink:href="#DejaVuSans-74" transform="translate(336.332031 0)"/>
      </g>
     </g>
    </g>
    <g id="text_12">
     <!-- Readiness class -->
     <g transform="translate(14.798437 168.576594) rotate(-90) scale(0.1 -0.1)">
      <defs>
       <path id="DejaVuSans-52" d="M 2841 2188 
Q 3044 2119 3236 1894 
Q 3428 1669 3622 1275 
L 4263 0 
L 3584 0 
L 2988 1197 
Q 2756 1666 2539 1819 
Q 2322 1972 1947 1972 
L 1259 1972 
L 1259 0 
L 628 0 
L 628 4666 
L 2053 4666 
Q 2853 4666 3247 4331 
Q 3641 3997 3641 3322 
Q 3641 2881 3436 2590 
Q 3231 2300 2841 2188 
z
M 1259 4147 
L 1259 2491 
L 2053 2491 
Q 2509 2491 2742 2702 
Q 2975 2913 2975 3322 
Q 2975 3731 2742 3939 
Q 2509 4147 2053 4147 
L 1259 4147 
z
" transform="scale(0.015625)"/>
      </defs>
      <use xlink:href="#DejaVuSans-52"/>
      <use xlink:href="#DejaVuSans-65" transform="translate(64.982422 0)"/>
      <use xlink:href="#DejaVuSans-61" transform="translate(126.505859 0)"/>
      <use xlink:href="#DejaVuSans-64" transform="translate(187.785156 0)"/>
      <use xlink:href="#DejaVuSans-69" transform="translate(251.261719 0)"/>
      <use xlink:href="#DejaVuSans-6e" transform="translate(279.044922 0)"/>
      <use xlink:href="#DejaVuSans-65" transform="translate(342.423828 0)"/>
      <use xlink:href="#DejaVuSans-73" transform="translate(403.947266 0)"/>
      <use xlink:href="#DejaVuSans-73" transform="translate(456.046875 0)"/>
      <use xlink:href="#DejaVuSans-20" transform="translate(508.146484 0)"/>
      <use xlink:href="#DejaVuSans-63" transform="translate(539.933594 0)"/>
      <use xlink:href="#DejaVuSans-6c" transform="translate(594.914062 0)"/>
      <use xlink:href="#DejaVuSans-61" transform="translate(622.697266 0)"/>
      <use xlink:href="#DejaVuSans-73" transform="translate(683.976562 0)"/>
      <use xlink:href="#DejaVuSans-73" transform="translate(736.076172 0)"/>
     </g>
    </g>
   </g>
   <g id="patch_3">
    <path d="M 139.476733 251.136 
L 161.239521 251.136 
L 161.239521 43.530894 
L 139.476733 43.530894 
z
" clip-path="url(#p5d98c5ff0e)" style="fill: #2a6f97"/>
   </g>
   <g id="patch_4">
    <path d="M 199.928923 251.136 
L 221.691712 251.136 
L 221.691712 251.136 
L 199.928923 251.136 
z
" clip-path="url(#p5d98c5ff0e)" style="fill: #2a6f97"/>
   </g>
   <g id="patch_5">
    <path d="M 260.381114 251.136 
L 282.143902 251.136 
L 282.143902 251.136 
L 260.381114 251.136 
z
" clip-path="url(#p5d98c5ff0e)" style="fill: #2a6f97"/>
   </g>
   <g id="patch_6">
    <path d="M 320.833304 251.136 
L 342.596092 251.136 
L 342.596092 147.333447 
L 320.833304 147.333447 
z
" clip-path="url(#p5d98c5ff0e)" style="fill: #2a6f97"/>
   </g>
   <g id="patch_7">
    <path d="M 381.285494 251.136 
L 403.048283 251.136 
L 403.048283 147.333447 
L 381.285494 147.333447 
z
" clip-path="url(#p5d98c5ff0e)" style="fill: #2a6f97"/>
   </g>
   <g id="patch_8">
    <path d="M 441.737684 251.136 
L 463.500473 251.136 
L 463.500473 147.333447 
L 441.737684 147.333447 
z
" clip-path="url(#p5d98c5ff0e)" style="fill: #2a6f97"/>
   </g>
   <g id="patch_9">
    <path d="M 502.189875 251.136 
L 523.952663 251.136 
L 523.952663 43.530894 
L 502.189875 43.530894 
z
" clip-path="url(#p5d98c5ff0e)" style="fill: #2a6f97"/>
   </g>
   <g id="patch_10">
    <path d="M 562.642065 251.136 
L 584.404854 251.136 
L 584.404854 43.530894 
L 562.642065 43.530894 
z
" clip-path="url(#p5d98c5ff0e)" style="fill: #2a6f97"/>
   </g>
   <g id="patch_11">
    <path d="M 161.239521 251.136 
L 183.00231 251.136 
L 183.00231 147.333447 
L 161.239521 147.333447 
z
" clip-path="url(#p5d98c5ff0e)" style="fill: #e9c46a"/>
   </g>
   <g id="patch_12">
    <path d="M 221.691712 251.136 
L 243.4545 251.136 
L 243.4545 147.333447 
L 221.691712 147.333447 
z
" clip-path="url(#p5d98c5ff0e)" style="fill: #e9c46a"/>
   </g>
   <g id="patch_13">
    <path d="M 282.143902 251.136 
L 303.906691 251.136 
L 303.906691 251.136 
L 282.143902 251.136 
z
" clip-path="url(#p5d98c5ff0e)" style="fill: #e9c46a"/>
   </g>
   <g id="patch_14">
    <path d="M 342.596092 251.136 
L 364.358881 251.136 
L 364.358881 147.333447 
L 342.596092 147.333447 
z
" clip-path="url(#p5d98c5ff0e)" style="fill: #e9c46a"/>
   </g>
   <g id="patch_15">
    <path d="M 403.048283 251.136 
L 424.811071 251.136 
L 424.811071 251.136 
L 403.048283 251.136 
z
" clip-path="url(#p5d98c5ff0e)" style="fill: #e9c46a"/>
   </g>
   <g id="patch_16">
    <path d="M 463.500473 251.136 
L 485.263261 251.136 
L 485.263261 147.333447 
L 463.500473 147.333447 
z
" clip-path="url(#p5d98c5ff0e)" style="fill: #e9c46a"/>
   </g>
   <g id="patch_17">
    <path d="M 523.952663 251.136 
L 545.715452 251.136 
L 545.715452 147.333447 
L 523.952663 147.333447 
z
" clip-path="url(#p5d98c5ff0e)" style="fill: #e9c46a"/>
   </g>
   <g id="patch_18">
    <path d="M 584.404854 251.136 
L 606.167642 251.136 
L 606.167642 147.333447 
L 584.404854 147.333447 
z
" clip-path="url(#p5d98c5ff0e)" style="fill: #e9c46a"/>
   </g>
   <g id="patch_19">
    <path d="M 116.142188 251.136 
L 116.142188 7.2 
" style="fill: none; stroke: #000000; stroke-width: 0.8; stroke-linejoin: miter; stroke-linecap: square"/>
   </g>
   <g id="patch_20">
    <path d="M 629.502187 251.136 
L 629.502187 7.2 
" style="fill: none; stroke: #000000; stroke-width: 0.8; stroke-linejoin: miter; stroke-linecap: square"/>
   </g>
   <g id="patch_21">
    <path d="M 116.142188 251.136 
L 629.502187 251.136 
" style="fill: none; stroke: #000000; stroke-width: 0.8; stroke-linejoin: miter; stroke-linecap: square"/>
   </g>
   <g id="patch_22">
    <path d="M 116.142188 7.2 
L 629.502187 7.2 
" style="fill: none; stroke: #000000; stroke-width: 0.8; stroke-linejoin: miter; stroke-linecap: square"/>
   </g>
   <g id="legend_1">
    <g id="patch_23">
     <path d="M 290.797969 23.798437 
L 310.797969 23.798437 
L 310.797969 16.798437 
L 290.797969 16.798437 
z
" style="fill: #2a6f97"/>
    </g>
    <g id="text_13">
     <!-- Authority -->
     <g transform="translate(318.797969 23.798437) scale(0.1 -0.1)">
      <use xlink:href="#DejaVuSans-41"/>
      <use xlink:href="#DejaVuSans-75" transform="translate(68.408203 0)"/>
      <use xlink:href="#DejaVuSans-74" transform="translate(131.787109 0)"/>
      <use xlink:href="#DejaVuSans-68" transform="translate(170.996094 0)"/>
      <use xlink:href="#DejaVuSans-6f" transform="translate(234.375 0)"/>
      <use xlink:href="#DejaVuSans-72" transform="translate(295.556641 0)"/>
      <use xlink:href="#DejaVuSans-69" transform="translate(336.669922 0)"/>
      <use xlink:href="#DejaVuSans-74" transform="translate(364.453125 0)"/>
      <use xlink:href="#DejaVuSans-79" transform="translate(403.662109 0)"/>
     </g>
    </g>
    <g id="patch_24">
     <path d="M 385.080781 23.798437 
L 405.080781 23.798437 
L 405.080781 16.798437 
L 385.080781 16.798437 
z
" style="fill: #e9c46a"/>
    </g>
    <g id="text_14">
     <!-- Runtime -->
     <g transform="translate(413.080781 23.798437) scale(0.1 -0.1)">
      <use xlink:href="#DejaVuSans-52"/>
      <use xlink:href="#DejaVuSans-75" transform="translate(64.982422 0)"/>
      <use xlink:href="#DejaVuSans-6e" transform="translate(128.361328 0)"/>
      <use xlink:href="#DejaVuSans-74" transform="translate(191.740234 0)"/>
      <use xlink:href="#DejaVuSans-69" transform="translate(230.949219 0)"/>
      <use xlink:href="#DejaVuSans-6d" transform="translate(258.732422 0)"/>
      <use xlink:href="#DejaVuSans-65" transform="translate(356.144531 0)"/>
     </g>
    </g>
   </g>
  </g>
 </g>
 <defs>
  <clipPath id="p5d98c5ff0e">
   <rect x="116.142188" y="7.2" width="513.36" height="243.936"/>
  </clipPath>
 </defs>
</svg>
